<?xml version="1.0" encoding="utf-8"?><svg xmlns="http://www.w3.org/2000/svg" xmlns:xlink="http://www.w3.org/1999/xlink" version="1.1" class="page" pageAlignment="none" x="0px" y="0px" width="32px" height="32px" viewBox="0 0 32 32" enable-background="new 0 0 32 32" xml:space="preserve"><defs/><style type="text/css"/><style type="text/css"/><g type="LAYER" name="workspace" id="workspace" locked="true"/><g transform="matrix(1 0 0 1 5.0000000000000036 5)"><g><path id="Facebook__x28_alt_x29_" width="22.000000000000004" height="22" stroke-width="0.24444444444444444" stroke-miterlimit="3" stroke="none" fill="#FFF5EE" d="M22.000000000000004,3.666666666666668 C22.000000000000004,1.735555555555556 20.26444444444444,0 18.333333333333346,0 L3.666666666666682,0 C1.7355555555555604,0 0,1.735555555555556 0,3.666666666666668 L0,18.333333333333336 C0,20.26444444444445 1.7355555555555604,22 3.666666666666682,22 L11.000000000000004,22 L11.000000000000004,13.688888888888892 L8.311111111111114,13.688888888888892 L8.311111111111114,10.022222222222227 L11.000000000000004,10.022222222222227 L11.000000000000004,8.604444444444448 C11.000000000000004,6.135555555555559 12.85777777777778,3.9111111111111114 15.131111111111107,3.9111111111111114 L18.088888888888892,3.9111111111111114 L18.088888888888892,7.577777777777779 L15.131111111111107,7.577777777777779 C14.813333333333343,7.577777777777779 14.42222222222222,7.9688888888888965 14.42222222222222,8.555555555555559 L14.42222222222222,10.022222222222227 L18.088888888888892,10.022222222222227 L18.088888888888892,13.688888888888892 L14.42222222222222,13.688888888888892 L14.42222222222222,22 L18.333333333333346,22 C20.26444444444444,22 22.000000000000004,20.26444444444445 22.000000000000004,18.333333333333336 L22.000000000000004,3.666666666666668 Z "/></g></g></svg>