<?xml version="1.0" encoding="utf-8"?><svg xmlns="http://www.w3.org/2000/svg" xmlns:xlink="http://www.w3.org/1999/xlink" version="1.1" class="page" pageAlignment="none" x="0px" y="0px" width="32px" height="32px" viewBox="0 0 32 32" enable-background="new 0 0 32 32" xml:space="preserve"><defs/><style type="text/css"/><style type="text/css"/><g type="LAYER" name="workspace" id="workspace" locked="true"/><path transform="matrix(1 0 0 1 3.982773922865899 3.356137165910237)" width="21.99999999999999" height="21.999999999999996" stroke-width="0.44376758683460404" stroke-miterlimit="3" stroke="none" fill="#FFF5EE" d="M19.265531708891395,2.143862834089763 L5.768920445376796,2.143862834089763 C3.4245199289979062,2.143862834089763 1.5172260771341008,4.050751386787697 1.5172260771341008,6.395199193141704 L1.5172260771341008,10.88617246596066 L1.5172260771341008,19.892526475037815 C1.5172260771341008,22.236974281391824 3.4245199289979062,24.14386283408976 5.768920445376796,24.14386283408976 L19.265975472002566,24.14386283408976 C21.610375988381463,24.14386283408976 23.51722607713409,22.236974281391824 23.51722607713409,19.892526475037815 L23.51722607713409,10.885728693898132 L23.51722607713409,6.394755421079172 C23.51678231402289,4.050307614725165 21.609932225270285,2.143862834089763 19.265531708891395,2.143862834089763 Z M20.484992738421802,4.679132627332326 L20.971357108278205,4.677357539082198 L20.971357108278205,5.161512859304084 L20.971357108278205,8.406374180534543 L17.254841052121996,8.418356026222893 L17.24197192189768,4.689783156833082 L20.484992738421802,4.679132627332326 Z M9.377158302404382,10.885728693898132 C10.081854122962739,9.910761472516386 11.224987897369694,9.27128593040847 12.51722607713409,9.27128593040847 C13.809464256898494,9.27128593040847 14.952598031305463,9.910761472516386 15.656406325641434,10.885728693898132 C16.114813619493304,11.522097831568326 16.38950298531546,12.300474029248608 16.38950298531546,13.143640948058492 C16.38950298531546,15.278628340897622 14.650839115701139,17.01555219364598 12.516782314022905,17.01555219364598 C10.381394223011128,17.01555219364598 8.644505405841542,15.278628340897622 8.644505405841542,13.143640948058492 C8.64494916895272,12.300474029248608 8.918751008552526,11.522097831568319 9.377158302404382,10.885728693898132 Z M21.37340648700983,19.892082702975276 C21.37340648700983,21.055209278870386 20.427747297079215,21.999999999999993 19.265531708891395,21.999999999999993 L5.768920445376796,21.999999999999993 C4.606261094077773,21.999999999999993 3.6606019041471676,21.055209278870386 3.6606019041471676,19.892082702975276 L3.6606019041471676,10.885728693898132 L6.944448926900108,10.885728693898132 C6.660884298854278,11.583338376197675 6.501573341939654,12.345295007564292 6.501573341939654,13.143640948058492 C6.501573341939654,16.459949571356525 9.199653057931265,19.159858799798275 12.51722607713409,19.159858799798275 C15.834355333225744,19.159858799798275 18.532435049217355,16.459949571356525 18.532435049217355,13.143640948058492 C18.532435049217355,12.345295007564292 18.372236566080367,11.583338376197679 18.088671938034516,10.885728693898132 L21.37340648700983,10.885728693898132 L21.37340648700983,19.892082702975276 Z "/></svg>