<?xml version="1.0" encoding="utf-8"?><svg xmlns="http://www.w3.org/2000/svg" xmlns:xlink="http://www.w3.org/1999/xlink" version="1.1" class="page" pageAlignment="none" x="0px" y="0px" width="32px" height="32px" viewBox="0 0 32 32" enable-background="new 0 0 32 32" xml:space="preserve"><defs/><style type="text/css"/><style type="text/css"/><g type="LAYER" name="workspace" id="workspace" locked="true"/><path transform="matrix(1 0 0 1 3.804798355082358 3.4757933401577663)" width="22" height="22" stroke-width="0.44471610861916533" stroke-miterlimit="3" stroke="none" fill="#FF6347" d="M23.06414771686243,15.360390196904916 C23.2226949777081,14.643262881114389 23.305551597076587,13.901848618052627 23.305551597076587,13.139680054595452 C23.305551597076587,7.426506894682966 18.608253089310047,2.794765259629471 12.81276846969726,2.794765259629471 C12.201420980843217,2.794765259629471 11.602166079680778,2.847313381907226 11.017691007919204,2.945785913570582 C10.08073939862787,2.3628991790610376 8.970460699089983,2.0242066598422332 7.7809083691292855,2.0242066598422332 C4.419616864477511,2.0242066598422332 1.6952016449176455,4.710784608899861 1.6952016449176455,8.025290540133675 C1.6952016449176455,9.132333754842332 2.001099326153774,10.168724032034683 2.531381690112166,11.05939262559965 C2.391645121231228,11.731037112864051 2.319089595081529,12.427410128259165 2.319089595081529,13.139680054595448 C2.319089595081529,18.854177957086364 7.016388102848062,23.48591959213986 12.812320596079061,23.48591959213986 C13.46935119399032,23.48591959213986 14.110258341646123,23.426306176110472 14.733250544573586,23.3128198952249 C15.590480649823874,23.76632343790772 16.5695323792268,24.024206659842232 17.610390667942426,24.024206659842232 C20.971234298975986,24.024206659842232 23.695201644917645,21.33807029164408 23.695201644917645,18.02444752212921 C23.695649518535852,17.067100218783242 23.468129720486132,16.163625780293447 23.06414771686243,15.360390196904916 Z M18.19441786608577,18.084060938158608 C17.709818611184623,18.761004395736737 16.99232507481524,19.297966720860682 16.062539443415233,19.67860942172979 C15.14215915799759,20.055719475723084 14.039046436351043,20.247365568736075 12.784104558131943,20.247365568736075 C11.277009832861694,20.247365568736075 10.012662608660236,19.98550811906626 9.026892774984205,19.469741675197202 C8.321491826306449,19.09483952550129 7.74059974349057,18.587021537102824 7.298996355937376,17.957768812348206 C6.853809979438523,17.324983440717762 6.628081675861637,16.696172296822617 6.628081675861637,16.08899861504185 C6.628081675861637,15.710563818470124 6.77498422263389,15.381586078159813 7.065206327232744,15.112663334738354 C7.3527411901223445,14.845948495614298 7.720893304289405,14.710824752614359 8.160705197369744,14.710824752614359 C8.521243460027272,14.710824752614359 8.832515624681903,14.816804158888825 9.085116345351274,15.026996647999837 C9.326520225565424,15.229682262499754 9.53298996355936,15.528632504365632 9.700046823150991,15.91413259468899 C9.886362248325554,16.3349591537705 10.088353250137395,16.68954858393047 10.302884713259097,16.967302944541455 C10.509354451253024,17.23666726882238 10.804951039270371,17.4623150880151 11.182956373038003,17.638947431805867 C11.563648948514889,17.816021356456112 12.076912114981361,17.906545432648883 12.706622422181965,17.906545432648883 C13.57460149426926,17.906545432648883 14.286272673601921,17.72417253768491 14.821033773742386,17.363842556351738 C15.344150159809452,17.012344192208108 15.596750880478808,16.589751309688687 15.596750880478808,16.07310170410068 C15.596750880478808,15.664639409084526 15.464628163107427,15.34449328596375 15.192768876855105,15.091467453483475 C14.905681887583711,14.827843680375743 14.529915921907126,14.62427490415688 14.07218908409844,14.48252744826479 C13.595651554325023,14.336364183777926 12.948026302396116,14.17739507436623 12.147676146658249,14.011802252062388 C11.057551759939727,13.782180205134383 10.133140611958225,13.50928323397764 9.397284257242326,13.201501374922222 C8.643960831416287,12.885329479536741 8.037539952362522,12.447281266935631 7.594145070336509,11.900604162903193 C7.14403208403737,11.343770699102787 6.915168665133031,10.647839264567152 6.915168665133031,9.827382027659018 C6.915168665133031,9.045783906384857 7.154781050874369,8.340579273800204 7.62773559170212,7.733847172878908 C8.096659269966011,7.130206137973948 8.782353779442602,6.660364103490496 9.664664807312562,6.339776399510246 C10.534883247490889,6.022279761546338 11.570814926406214,5.8611027478372595 12.743795932493235,5.8611027478372595 C13.68074754178457,5.8611027478372595 14.503939252051048,5.968848477549628 15.192321003236891,6.178599385801167 C15.884285743368423,6.390558198350092 16.46696932065715,6.677585757010098 16.925144032084035,7.030408863732163 C17.386005985220166,7.386323036470564 17.729972924003988,7.765640994761247 17.94584800798028,8.161297444852574 C18.16261883919301,8.559603380100759 18.27279574927219,8.957026153629997 18.27279574927219,9.340759920515449 C18.27279574927219,9.710804680757114 18.12858044420919,10.046847714819052 17.842389202174225,10.340498986371212 C17.55440646566639,10.634591838782844 17.192524582154263,10.783846169286045 16.764805276765536,10.783846169286045 C16.376498849779125,10.783846169286045 16.071944789397598,10.689789446217459 15.860996315221598,10.506974970394008 C15.664827670446428,10.334316854338535 15.461045174161761,10.067602015214467 15.234868996966654,9.68386824832902 C14.973310803933138,9.194596656028583 14.656664155860007,8.807771823126798 14.29343865149324,8.535316432829532 C13.94006636672706,8.269926336283897 13.350664685165206,8.137010497581342 12.540461309826746,8.137010497581342 C11.788929378473547,8.137010497581342 11.176686142383083,8.285381666365591 10.722542293520064,8.579916099636703 C10.284969768530765,8.862086268842459 10.071781926263718,9.186648200557997 10.071781926263718,9.571265129162402 C10.071781926263718,9.80751088898256 10.140754463467758,10.003572790590315 10.282730400439725,10.173139840629455 C10.431424441684818,10.353746412155514 10.642372915860832,10.510066036410352 10.907514097840014,10.642098713393958 C11.182956373038003,10.779430360691277 11.468251867836571,10.887617671263126 11.752651615398698,10.96445274081211 C12.043769467233972,11.044820457236913 12.532847458317221,11.162722546717252 13.203762138392953,11.31550952409627 C14.052930518515495,11.495674514762857 14.83446998228861,11.696593805824856 15.523747480710895,11.914734750406456 C16.223326072351938,12.13552518014492 16.826163962460043,12.406214247004277 17.31972068972535,12.722827723249234 C17.82178701573664,13.045181750667389 18.219946662323636,13.458943015997274 18.50255491541295,13.954396740330386 C18.78605891573868,14.451175207241928 18.92937847356525,15.064089440195904 18.92937847356525,15.776800947391667 C18.92937847356525,16.627285682744223 18.681704362696173,17.40535115714257 18.19441786608577,18.084060938158608 Z "/></svg>