<?xml version="1.0" encoding="utf-8"?><svg xmlns="http://www.w3.org/2000/svg" xmlns:xlink="http://www.w3.org/1999/xlink" version="1.1" class="page" pageAlignment="none" x="0px" y="0px" width="32px" height="32px" viewBox="0 0 32 32" enable-background="new 0 0 32 32" xml:space="preserve"><defs/><style type="text/css"/><style type="text/css"/><g type="LAYER" name="workspace" id="workspace" locked="true"/><path transform="matrix(1 0 0 1 1.1137161764407182 -0.17447669480941697)" width="25.999999999999996" height="22" stroke-width="0" stroke-miterlimit="3" stroke="none" fill="#FF6347" d="M27.886283823559282,8.278713093870207 C26.930475204514586,8.72108707598541 25.901833018695584,9.019483439076785 24.822524003816284,9.153019933056905 C25.924527535878894,8.46610381176 26.769502466354055,7.378028675625719 27.167975965734946,6.080031972823101 C26.13722266203849,6.716940600489583 24.996163449241863,7.179097766898131 23.780687331262847,7.428585702153168 C22.807989769197995,6.349303092371486 21.421513103140306,5.674476694809414 19.8872581856566,5.674476694809414 C16.9417209670544,5.674476694809414 14.553518868116065,8.161113053904183 14.553518868116065,11.22860568516761 C14.553518868116065,11.663286206724283 14.600491240890754,12.08697607034021 14.691797089093242,12.494179947045017 C10.258449546312661,12.262277064495175 6.327548058380554,10.051506219713241 3.6965674035280145,6.691112554328822 C3.2373992651686017,7.5110156367087955 2.974565089418043,8.465004745965931 2.974565089418043,9.483838737073484 C2.974565089418043,11.410501074087016 3.9161236627895235,13.11075585752111 5.347461583744408,14.10650946695309 C4.473458782453388,14.077384223410103 3.6506505896920842,13.827346755258027 2.9312871729289967,13.41135035220063 C2.93075939345961,13.434430733876205 2.93075939345961,13.458060648448825 2.93075939345961,13.481690563021427 C2.93075939345961,16.17220362691711 4.769543064774794,18.416495978418343 7.209995331181631,18.927561572663226 C6.7624383411485525,19.053954138981865 6.291131274993418,19.12209621821451 5.804518604226313,19.12209621821451 C5.460406390191427,19.12209621821451 5.126321986074757,19.087475645701154 4.80068205346813,19.022081230953674 C5.479934230558438,21.228455812559318 7.449607210279531,22.83474047059998 9.783448023871891,22.87925263526001 C7.95785883929117,24.36903631912874 5.658323691208437,25.25708148074136 3.158760124231179,25.25708148074136 C2.7286198566875903,25.25708148074136 2.303757383837773,25.230703901683558 1.8862838235592854,25.179047809362043 C4.247569169559313,26.75565769096267 7.051133710898661,27.674476694809414 10.063171142642567,27.674476694809414 C19.87511925786091,27.674476694809414 25.2399975640948,19.211670080431634 25.2399975640948,11.87210870759853 C25.2399975640948,11.631413298696092 25.235247548870376,11.3912674226907 25.22521973895219,11.15277014537642 C26.267056411505614,10.371334365789078 27.171670422020583,9.392616276165258 27.886283823559282,8.278713093870207 Z "/></svg>