<?xml version="1.0" encoding="utf-8"?><svg xmlns="http://www.w3.org/2000/svg" xmlns:xlink="http://www.w3.org/1999/xlink" version="1.1" class="page" pageAlignment="none" x="0px" y="0px" width="32px" height="32px" viewBox="0 0 32 32" enable-background="new 0 0 32 32" xml:space="preserve"><defs/><style type="text/css"/><style type="text/css"/><g type="LAYER" name="workspace" id="workspace" locked="true"/><path id="VK" transform="matrix(1 0 0 1 2.0383559192404093 -0.6632384304941725)" width="27.999999999999996" height="19.999999999999996" stroke-width="0" stroke-miterlimit="3" stroke="none" fill="#FFF5EE" placeIntoHtmlLayer="yes" d="M14.912876843071757,26.6529537219767 C15.84493164576373,26.6529537219767 15.84493164576373,25.052665958919683 15.84493164576373,24.431874245145302 C15.84493164576373,23.32133450672961 16.77698644845571,22.210794768313907 17.709041251147745,22.210794768313907 C18.641096053839725,22.210794768313907 20.23957004045647,24.115370419696823 21.437260461915677,25.542413983561 C22.369315264607657,26.6529537219767 22.369315264607657,26.6529537219767 23.30137006729963,26.6529537219767 C24.233424869991623,26.6529537219767 26.09753447537564,26.6529537219767 26.09753447537564,26.6529537219767 C26.09753447537564,26.6529537219767 27.961644080759584,26.568552701857097 27.961644080759584,24.431874245145302 C27.961644080759584,23.73778690863548 27.323186540915565,22.560614785914854 25.165479672683603,19.989715291482522 C23.30137006729963,17.76863581465113 22.34508183973766,18.915823364434548 25.165479672683603,14.437016599404046 C26.88325667404493,11.70953100185509 28.133142164454902,9.238580083880173 27.918769559835745,8.525613571817296 C27.7137175032435,7.844852712168474 22.936004584644387,6.760965927474761 22.369315264607657,7.77377816890987 C20.505205659223698,11.105397384156955 20.163141546635728,11.921644091892485 19.57315085653171,13.32647686098834 C18.641096053839725,15.547556337819728 18.548822628373188,16.658096076235427 17.709041251147745,16.658096076235427 C16.86180343550071,16.658096076235427 16.77698644845571,14.502538443970561 16.77698644845571,13.32647686098834 C16.77698644845571,9.655032485786055 17.22344069894519,7.058590577370157 15.84493164576373,6.6632384304941725 C15.84493164576373,6.6632384304941725 13.980822040379785,6.6632384304941725 13.048767237687784,6.6632384304941725 C11.54815900535366,6.6632384304941725 10.252602829611838,7.77377816890987 10.252602829611838,7.77377816890987 C10.252602829611838,7.77377816890987 9.095922819471056,8.848780635696261 9.32054802691983,8.884317907325563 C9.59830035812206,8.928739496862189 11.184657632303825,8.424554455621472 11.184657632303825,9.994857645741256 C11.184657632303825,11.105397384156955 11.184657632303825,12.215937122572658 11.184657632303825,12.215937122572658 C11.184657632303825,12.215937122572658 11.193046125528028,16.658096076235427 10.252602829611838,16.658096076235427 C9.32054802691983,16.658096076235427 7.456438421535871,12.215937122572658 5.592328816151905,8.884317907325563 C4.860665796038688,7.57721263521029 4.6602740134598974,7.77377816890987 3.728219210767911,7.77377816890987 C2.729056462282113,7.77377816890987 1.865041660186634,7.820420837923325 0.9320548026919511,7.820420837923325 C-2.842170943040401e-14,7.820420837923325 -0.11930301474460947,8.527834651294128 -2.842170943040401e-14,8.884317907325563 C1.8641096053839554,14.437016599404046 3.203472356852327,17.92411137802931 6.745280607081881,22.317406583201834 C9.993491594463471,26.34755529391239 12.1633151751304,26.561889463426617 13.980822040379785,26.6529537219767 C14.446849441725753,26.67627505648343 13.980822040379785,26.6529537219767 14.912876843071757,26.6529537219767 Z "/></svg>